<svg id="Layer_1" data-name="Layer 1" xmlns="http://www.w3.org/2000/svg" viewBox="0 0 300 300"><defs><style>.cls-1{font-size:82.96px;fill:#fff;font-family:SouthernAirePersonalUseOnly, Southern Aire Personal Use Only;}.cls-2{fill:#9ccc65;}.cls-2,.cls-3{stroke:#fff;stroke-miterlimit:10;stroke-width:2px;}.cls-3{fill:#6d4c41;}</style></defs><title>LOGO APP0</title><text class="cls-1" transform="translate(48.97 238.24) scale(0.57 1)">Dapur Endah</text><path class="cls-2" d="M139.8,111.36l-28.05,30.35a7.46,7.46,0,0,0,0,10,6.16,6.16,0,0,0,9.2,0L149,121.32Z"/><path class="cls-2" d="M210.17,63.15a4,4,0,0,0-5.56.48L187.89,81.74,185,78.58l16.72-18.1a4.82,4.82,0,0,0,.44-6,3.83,3.83,0,0,0-6-.33L179.27,72.41l-2.91-3.16,16.72-18.1a4.82,4.82,0,0,0,.44-6,3.83,3.83,0,0,0-6-.33L170.65,63.08,165.16,69a9.91,9.91,0,0,0,0,13.24l.75.82-11.54,12.5,9.2,10L175.11,93l.76.82a8.18,8.18,0,0,0,12.23,0l22.38-24.23A4.61,4.61,0,0,0,210.17,63.15Z"/><path class="cls-2" d="M99,51.37c-7.43,8.05-5.88,22.78,3.48,32.9,7.31,7.93,17.22,10.65,24.75,7.63l52.67,57a6.15,6.15,0,0,0,9.2,0,7.46,7.46,0,0,0,0-10l-52.67-57c2.8-8.15.28-18.88-7-26.8C120,45,106.4,43.33,99,51.37Z"/><path class="cls-2" d="M153,56.72h0a18.43,18.43,0,0,0,0-24.61h0A18.45,18.45,0,0,0,153,56.72Z"/><path class="cls-2" d="M149.34,61.81h0c0-9.61-7.2-17.39-16.08-17.39h0C133.26,54,140.46,61.81,149.34,61.81Z"/><path class="cls-2" d="M156.59,61.81h0c0-9.61,7.2-17.39,16.07-17.39h0C172.66,54,165.47,61.81,156.59,61.81Z"/><path class="cls-2" d="M198.08,109.67h0a15.21,15.21,0,0,0,22.73,0h0A15.23,15.23,0,0,0,198.08,109.67Z"/><path class="cls-2" d="M193.38,105.75h0c8.87,0,16.07-7.79,16.07-17.4h0C200.57,88.35,193.38,96.14,193.38,105.75Z"/><path class="cls-2" d="M193.38,113.6h0c8.87,0,16.07,7.79,16.07,17.4h0C200.57,131,193.38,123.21,193.38,113.6Z"/><path class="cls-2" d="M153,154.41h0a18.44,18.44,0,0,0,0,24.6h0A18.42,18.42,0,0,0,153,154.41Z"/><path class="cls-2" d="M156.59,149.31h0c0,9.61,7.2,17.4,16.07,17.4h0C172.66,157.1,165.47,149.31,156.59,149.31Z"/><path class="cls-2" d="M149.34,149.31h0c0,9.61-7.2,17.4-16.08,17.4h0C133.26,157.1,140.46,149.31,149.34,149.31Z"/><path class="cls-2" d="M107.84,109.67h0a15.22,15.22,0,0,0-22.72,0h0A15.2,15.2,0,0,0,107.84,109.67Z"/><path class="cls-2" d="M112.55,113.6h0c-8.87,0-16.07,7.79-16.07,17.4h0C105.36,131,112.55,123.21,112.55,113.6Z"/><path class="cls-2" d="M112.55,105.75h0c-8.87,0-16.07-7.79-16.07-17.4h0C105.36,88.35,112.55,96.14,112.55,105.75Z"/><ellipse class="cls-3" cx="116.71" cy="109.67" rx="2.56" ry="2.77"/><path class="cls-3" d="M153,69a2.78,2.78,0,1,1,2.56-2.77A2.67,2.67,0,0,1,153,69Z"/><path class="cls-3" d="M153,142.1a2.78,2.78,0,1,1-2.56,2.77A2.67,2.67,0,0,1,153,142.1Z"/><path class="cls-3" d="M186.72,109.67a2.57,2.57,0,1,1,2.56,2.77A2.67,2.67,0,0,1,186.72,109.67Z"/></svg>