<svg id="Layer_1" data-name="Layer 1" xmlns="http://www.w3.org/2000/svg" viewBox="0 0 300 300"><defs><style>.cls-1{fill:#005f0a;}.cls-2{fill:#9ccc65;}.cls-2,.cls-3{stroke:#fff;stroke-miterlimit:10;stroke-width:2px;}.cls-3{fill:#6d4c41;}</style></defs><title>LOGO BULAT0</title><circle class="cls-1" cx="150" cy="150" r="150"/><path class="cls-2" d="M131.72,158.78,87.53,205a11.08,11.08,0,0,0,0,15.16,9.93,9.93,0,0,0,14.5,0l44.19-46.21Z"/><path class="cls-2" d="M242.62,85.41a6.4,6.4,0,0,0-8.76.73L207.5,113.7l-4.58-4.8,26.35-27.56a7.15,7.15,0,0,0,.7-9.16,6.18,6.18,0,0,0-9.44-.51L193.92,99.5l-4.59-4.8,26.36-27.56a7.14,7.14,0,0,0,.69-9.16,6.17,6.17,0,0,0-9.43-.51L180.34,85.3l-8.66,9a14.72,14.72,0,0,0,0,20.15l1.2,1.25-18.19,19,14.5,15.16,18.18-19,1.2,1.24a13.2,13.2,0,0,0,19.27,0l35.27-36.87A6.87,6.87,0,0,0,242.62,85.41Z"/><path class="cls-2" d="M67.37,67.48c-11.71,12.25-9.26,34.67,5.48,50.08,11.53,12.06,27.14,16.21,39,11.6l83,86.78a10,10,0,0,0,14.5,0,11.08,11.08,0,0,0,0-15.16l-83-86.78c4.41-12.41.44-28.74-11.09-40.79C100.53,57.79,79.09,55.23,67.37,67.48Z"/><path class="cls-2" d="M152.47,75.62h0a27.36,27.36,0,0,0,0-37.46h0A27.36,27.36,0,0,0,152.47,75.62Z"/><path class="cls-2" d="M146.75,83.37h0c0-14.62-11.33-26.48-25.32-26.48h0C121.43,71.52,132.77,83.37,146.75,83.37Z"/><path class="cls-2" d="M158.19,83.37h0c0-14.62,11.34-26.48,25.32-26.48h0C183.51,71.52,172.17,83.37,158.19,83.37Z"/><path class="cls-2" d="M223.57,156.22h0a24.54,24.54,0,0,0,35.82,0h0A24.56,24.56,0,0,0,223.57,156.22Z"/><path class="cls-2" d="M216.15,150.25h0c14,0,25.33-11.86,25.33-26.49h0C227.49,123.76,216.15,135.62,216.15,150.25Z"/><path class="cls-2" d="M216.15,162.2h0c14,0,25.33,11.86,25.33,26.48h0C227.49,188.68,216.15,176.83,216.15,162.2Z"/><path class="cls-2" d="M152.47,224.31h0a27.34,27.34,0,0,0,0,37.45h0A27.34,27.34,0,0,0,152.47,224.31Z"/><path class="cls-2" d="M158.19,216.56h0c0,14.62,11.34,26.48,25.32,26.48h0C183.51,228.41,172.17,216.56,158.19,216.56Z"/><path class="cls-2" d="M146.75,216.56h0c0,14.62-11.33,26.48-25.32,26.48h0C121.43,228.41,132.77,216.56,146.75,216.56Z"/><path class="cls-2" d="M81.37,156.22h0a24.56,24.56,0,0,0-35.82,0h0A24.54,24.54,0,0,0,81.37,156.22Z"/><path class="cls-2" d="M88.79,162.2h0c-14,0-25.33,11.86-25.33,26.48h0C77.45,188.68,88.79,176.83,88.79,162.2Z"/><path class="cls-2" d="M88.79,150.25h0c-14,0-25.33-11.86-25.33-26.49h0C77.45,123.76,88.79,135.62,88.79,150.25Z"/><ellipse class="cls-3" cx="95.35" cy="156.22" rx="4.03" ry="4.22"/><path class="cls-3" d="M152.47,94.34a4.22,4.22,0,1,1,4-4.21A4.12,4.12,0,0,1,152.47,94.34Z"/><path class="cls-3" d="M152.47,205.59a4.22,4.22,0,1,1-4,4.21A4.12,4.12,0,0,1,152.47,205.59Z"/><path class="cls-3" d="M205.66,156.22a4,4,0,1,1,4,4.22A4.12,4.12,0,0,1,205.66,156.22Z"/></svg>